<svg id="visual" viewBox="0 0 900 600" width="900" height="600" xmlns="http://www.w3.org/2000/svg" xmlns:xlink="http://www.w3.org/1999/xlink" version="1.1"><path d="M0 193L150 283L300 223L450 181L600 325L750 145L900 289L900 0L750 0L600 0L450 0L300 0L150 0L0 0Z" fill="#05174F"></path><path d="M0 403L150 421L300 433L450 427L600 475L750 433L900 475L900 287L750 143L600 323L450 179L300 221L150 281L0 191Z" fill="#183E70"></path><path d="M0 601L150 601L300 601L450 601L600 601L750 601L900 601L900 473L750 431L600 473L450 425L300 431L150 419L0 401Z" fill="#0A83FE"></path></svg>